<svg width="24" height="24" viewBox="0 0 24 24" fill="none" xmlns="http://www.w3.org/2000/svg">
<g clip-path="url(#clip0_2048_1570)">
<path d="M12.5999 4.69925C12.5219 4.70031 12.4444 4.68594 12.372 4.65696C12.2995 4.62798 12.2335 4.58497 12.1778 4.5304C12.122 4.47584 12.0776 4.41078 12.0471 4.33899C12.0165 4.26719 12.0005 4.19007 11.9999 4.11205C11.9999 1.84005 13.8815 5.4318e-05 16.1983 5.4318e-05C16.2763 -0.00100249 16.3537 0.0133709 16.4262 0.0423482C16.4986 0.0713255 16.5646 0.114335 16.6204 0.168904C16.6761 0.223473 16.7205 0.288525 16.7511 0.360321C16.7816 0.432116 16.7977 0.509239 16.7983 0.587254C16.7983 2.85925 14.9183 4.69925 12.5999 4.69925Z" fill="#0C0C0C"/>
<path d="M12.5999 4.69925C12.5219 4.70031 12.4444 4.68594 12.372 4.65696C12.2996 4.62798 12.2336 4.58497 12.1778 4.5304C12.1221 4.47584 12.0776 4.41078 12.0471 4.33899C12.0166 4.26719 12.0005 4.19007 11.9999 4.11205C11.9999 1.84005 13.8815 5.4318e-05 16.1983 5.4318e-05C16.2763 -0.00100249 16.3538 0.0133709 16.4262 0.0423482C16.4986 0.0713255 16.5646 0.114335 16.6204 0.168904C16.6762 0.223473 16.7206 0.288525 16.7511 0.360321C16.7816 0.432116 16.7977 0.509239 16.7983 0.587254C16.7983 2.85925 14.9183 4.69925 12.5999 4.69925ZM21.3599 17.0689C21.5919 17.2385 21.6671 17.5489 21.5359 17.8017C19.4239 21.9393 17.7391 24.0001 16.1999 24.0001C15.4831 24.0001 14.7791 23.7729 14.0927 23.3313C13.5997 23.0158 13.0293 22.8424 12.4442 22.8299C11.8591 22.8175 11.2818 22.9666 10.7759 23.2609C9.9439 23.7489 9.1519 24.0001 8.3999 24.0001C6.1359 24.0001 2.3999 17.1729 2.3999 13.4273C2.3999 9.42726 4.5423 6.37765 7.7999 6.37765C9.3327 6.37659 10.6554 6.60005 11.7679 7.04805C12.2383 7.23685 12.7711 7.22405 13.2303 7.00805C14.1327 6.58245 15.3231 6.37765 16.7983 6.37765C18.6015 6.37765 20.1743 7.25765 21.4799 8.96165C21.5276 9.02293 21.5623 9.09321 21.5821 9.16827C21.602 9.24333 21.6064 9.32162 21.5952 9.39843C21.584 9.47525 21.5574 9.549 21.5169 9.61527C21.4765 9.68154 21.4231 9.73895 21.3599 9.78405C19.9023 10.8561 19.1999 12.0577 19.1999 13.4273C19.1999 14.7953 19.9023 15.9985 21.3599 17.0689Z" fill="#0C0C0C"/>
<path d="M21.3599 17.0691C21.5919 17.2387 21.6671 17.5491 21.5359 17.8019C19.4239 21.9395 17.7391 24.0003 16.1999 24.0003C15.4831 24.0003 14.7791 23.7731 14.0927 23.3315C13.5997 23.0161 13.0293 22.8426 12.4442 22.8302C11.8591 22.8178 11.2818 22.9669 10.7759 23.2611C9.9439 23.7491 9.1519 24.0003 8.3999 24.0003C6.1359 24.0003 2.3999 17.1731 2.3999 13.4275C2.3999 9.42753 4.5423 6.37793 7.7999 6.37793C9.3327 6.37687 10.6554 6.60033 11.7679 7.04833C12.2383 7.23713 12.7711 7.22433 13.2303 7.00833C14.1327 6.58273 15.3231 6.37793 16.7983 6.37793C18.6015 6.37793 20.1743 7.25793 21.4799 8.96193C21.5276 9.02321 21.5623 9.09349 21.5821 9.16855C21.602 9.24361 21.6064 9.3219 21.5952 9.39871C21.584 9.47553 21.5574 9.54928 21.5169 9.61555C21.4765 9.68182 21.4231 9.73923 21.3599 9.78433C19.9023 10.8563 19.1999 12.0579 19.1999 13.4275C19.1999 14.7955 19.9023 15.9987 21.3599 17.0691Z" fill="#0C0C0C"/>
</g>
<defs>
<clipPath id="clip0_2048_1570">
<rect width="24" height="24" fill="white"/>
</clipPath>
</defs>
</svg>
