<svg width="25" height="24" viewBox="0 0 25 24" fill="none" xmlns="http://www.w3.org/2000/svg">
<path d="M22.3057 10.0425H21.5002V10.001H12.5002V14.001H18.1517C17.3272 16.3295 15.1117 18.001 12.5002 18.001C9.18674 18.001 6.50024 15.3145 6.50024 12.001C6.50024 8.68748 9.18674 6.00098 12.5002 6.00098C14.0297 6.00098 15.4212 6.57798 16.4807 7.52048L19.3092 4.69198C17.5232 3.02748 15.1342 2.00098 12.5002 2.00098C6.97774 2.00098 2.50024 6.47848 2.50024 12.001C2.50024 17.5235 6.97774 22.001 12.5002 22.001C18.0227 22.001 22.5002 17.5235 22.5002 12.001C22.5002 11.3305 22.4312 10.676 22.3057 10.0425Z" fill="#FFC107"/>
<path d="M3.65308 7.34648L6.93858 9.75598C7.82758 7.55498 9.98058 6.00098 12.5001 6.00098C14.0296 6.00098 15.4211 6.57798 16.4806 7.52048L19.3091 4.69198C17.5231 3.02748 15.1341 2.00098 12.5001 2.00098C8.65908 2.00098 5.32808 4.16948 3.65308 7.34648Z" fill="#FF3D00"/>
<path d="M12.5002 22.0003C15.0832 22.0003 17.4302 21.0118 19.2047 19.4043L16.1097 16.7853C15.0721 17.5749 13.8039 18.0017 12.5002 18.0003C9.89916 18.0003 7.69066 16.3418 6.85866 14.0273L3.59766 16.5398C5.25266 19.7783 8.61366 22.0003 12.5002 22.0003Z" fill="#4CAF50"/>
<path d="M22.3056 10.0415H21.5001V10H12.5001V14H18.1516C17.7572 15.1082 17.0468 16.0766 16.1081 16.7855L16.1096 16.7845L19.2046 19.4035C18.9856 19.6025 22.5001 17 22.5001 12C22.5001 11.3295 22.4311 10.675 22.3056 10.0415Z" fill="#1976D2"/>
</svg>
